<?xml version="1.0" encoding="utf-8"?>
<!-- Generator: Adobe Illustrator 26.0.3, SVG Export Plug-In . SVG Version: 6.00 Build 0)  -->
<svg version="1.1" id="Layer_1" xmlns="http://www.w3.org/2000/svg" xmlns:xlink="http://www.w3.org/1999/xlink" x="0px" y="0px"
	 viewBox="0 0 333 323" style="enable-background:new 0 0 333 323;" xml:space="preserve">
<style type="text/css">
	.st0{fill:#FFFFFF;}
</style>
<rect width="333" height="323"/>
<g>
	<path class="st0" d="M91.6,166.8c0-36.8,28.3-73.2,67.7-73.2v-52c-56.9,0-118.5,50-118.5,122.6c0,69.9,55,123,118.1,126.8v-53.8
		C125.4,234.9,91.6,211.2,91.6,166.8z"/>
	<path class="st0" d="M287.5,169.7l-49.9,1.2c0,0-5.7,61.9-66.7,66.1V291C234.8,288.4,287.5,233,287.5,169.7z"/>
	<path class="st0" d="M170.9,161.3l49.9-1.2c0,0,5.7-61.9,66.7-66.1V40C223.6,42.6,170.9,98,170.9,161.3z"/>
</g>
</svg>
